<?xml version="1.0" encoding="UTF-8"?>
<svg version="1.1" xmlns="http://www.w3.org/2000/svg" width="500" height="500">
<path d="M0 0 C14.58348296 14.51087672 22.14342544 32.33365131 22.3125 52.9375 C22.3125 71.56980562 15.97722512 89.28693732 3.6015625 103.40625 C-7.92343575 114.89663865 -20.38109297 121.48873256 -36 126 C-35.36312256 126.03963867 -34.72624512 126.07927734 -34.07006836 126.12011719 C18.20025909 129.50415699 69.2122518 145.67007643 109 181 C109.83273437 181.73605469 110.66546875 182.47210938 111.5234375 183.23046875 C113.19781017 184.72710032 114.86469267 186.23215997 116.5234375 187.74609375 C118.20252205 189.2742196 119.89580823 190.78685858 121.6015625 192.28515625 C126.84131921 196.89962477 131.58174528 201.59795894 136 207 C136.43038574 207.51804199 136.86077148 208.03608398 137.30419922 208.56982422 C174.00695078 252.82939019 190.62034362 303.88824681 193 361 C170.89 361 148.78 361 126 361 C125.01 351.76 124.02 342.52 123 333 C114.90586841 287.7845063 91.67928361 247.99566615 53.6550293 221.45019531 C17.28398568 196.60213976 -27.3511464 186.31397025 -70.953125 193.96484375 C-104.71204305 200.57870182 -134.32514229 216.18091771 -159 240 C-159.78890625 240.73734375 -160.5778125 241.4746875 -161.390625 242.234375 C-171.39364936 251.81769204 -179.10680375 263.04156036 -186 275 C-186.98613281 276.67255859 -186.98613281 276.67255859 -187.9921875 278.37890625 C-202.7477596 304.13030342 -206.73424976 331.54524692 -209 361 C-231.11 361 -253.22 361 -276 361 C-276 338.74171132 -276 338.74171132 -274.875 330.875 C-274.74375732 329.92818359 -274.61251465 328.98136719 -274.47729492 328.00585938 C-268.5687388 288.15002196 -253.20424176 249.59596494 -228 218 C-227.28328125 217.09121094 -226.5665625 216.18242187 -225.828125 215.24609375 C-220.18467731 208.21179637 -214.18559252 201.55567071 -208 195 C-207.19820313 194.1440625 -206.39640625 193.288125 -205.5703125 192.40625 C-198.92892257 185.52533453 -191.64250232 179.71074492 -184 174 C-183.4220166 173.56655273 -182.8440332 173.13310547 -182.24853516 172.68652344 C-147.73651469 146.97550678 -107.6611546 132.03221366 -65 127 C-66.01578125 126.70867187 -67.0315625 126.41734375 -68.078125 126.1171875 C-81.51320092 122.16386273 -94.02201635 117.31189255 -104 107 C-104 102.92412524 -102.74008328 102.01409161 -100 99 C-98.82079994 97.95558274 -97.62887256 96.92545433 -96.42834473 95.90562439 C-91.62177148 91.73059946 -87.13705349 87.26999526 -82.64648438 82.76000977 C-81.74798767 81.86165909 -80.84949097 80.96330841 -79.92376709 80.03773499 C-77.48405905 77.59831135 -75.04742508 75.15583874 -72.61137199 72.71276593 C-70.05607891 70.15117953 -67.49791317 67.59246507 -64.94006348 65.03343201 C-60.10757887 60.1978516 -55.27764687 55.35973002 -50.44864893 50.52066797 C-44.94632873 45.00713199 -39.44113512 39.49646886 -33.93570995 33.98603356 C-22.62062842 22.66052732 -11.30912284 11.33145652 0 0 Z " fill="#00BF63" transform="translate(307,29)"/>
<path d="M0 0 C20.46538436 16.77575863 34.84558197 40.11531945 38.12109375 66.6171875 C38.12109375 71.8971875 38.12109375 77.1771875 38.12109375 82.6171875 C-5.93390625 83.1121875 -5.93390625 83.1121875 -50.87890625 83.6171875 C-48.89890625 84.2771875 -46.91890625 84.9371875 -44.87890625 85.6171875 C-32.15606135 92.2307395 -23.72933988 100.81495991 -18.60546875 114.29296875 C-14.95307121 125.97671357 -16.07064305 138.47681153 -20.87890625 149.6171875 C-22.643796 152.83267156 -24.63650509 155.71976916 -26.87890625 158.6171875 C-27.60078125 159.6484375 -28.32265625 160.6796875 -29.06640625 161.7421875 C-36.66236929 170.42328812 -48.37458404 174.84934019 -59.58203125 175.99609375 C-73.12422236 176.42799491 -85.76222149 172.7746277 -96.02734375 163.72265625 C-106.7260341 152.67554112 -110.31723766 139.87898428 -110.09375 124.85546875 C-109.63639372 111.96143062 -102.88994159 101.45625652 -93.87890625 92.6171875 C-88.42829925 88.01394378 -82.8777008 85.01694641 -75.87890625 83.6171875 C-105.57890625 83.2871875 -135.27890625 82.9571875 -165.87890625 82.6171875 C-165.87890625 57.44730919 -158.68419452 33.69952819 -141.87890625 14.6171875 C-141.2034375 13.79863281 -140.52796875 12.98007812 -139.83203125 12.13671875 C-105.0039217 -28.85622041 -41.66540672 -32.18368217 0 0 Z " fill="#FDDD59" transform="translate(328.87890625,307.3828125)"/>
<path d="M0 0 C14.58348296 14.51087672 22.14342544 32.33365131 22.3125 52.9375 C22.3125 71.56980562 15.97722512 89.28693732 3.6015625 103.40625 C-11.84820207 118.80961888 -30.60601489 127.28052629 -52.5 127.5 C-71.45572685 127.29301119 -87.42655585 121.0979972 -102.0859375 109.015625 C-104 107 -104 107 -104 104 C-101.86488641 100.79732961 -99.33790687 98.37725271 -96.42834473 95.90562439 C-91.62177148 91.73059946 -87.13705349 87.26999526 -82.64648438 82.76000977 C-81.74798767 81.86165909 -80.84949097 80.96330841 -79.92376709 80.03773499 C-77.48405905 77.59831135 -75.04742508 75.15583874 -72.61137199 72.71276593 C-70.05607891 70.15117953 -67.49791317 67.59246507 -64.94006348 65.03343201 C-60.10757887 60.1978516 -55.27764687 55.35973002 -50.44864893 50.52066797 C-44.94632873 45.00713199 -39.44113512 39.49646886 -33.93570995 33.98603356 C-22.62062842 22.66052732 -11.30912284 11.33145652 0 0 Z " fill="#FFDE59" transform="translate(307,29)"/>
<path d="M0 0 C1.0725 0.763125 2.145 1.52625 3.25 2.3125 C12.98570803 11.82694194 18.04017167 23.46958201 18.3125 37 C18.3377846 48.42020908 14.98966305 57.96861959 8 67 C7.278125 68.03125 6.55625 69.0625 5.8125 70.125 C-1.78346304 78.80610062 -13.49567779 83.23215269 -24.703125 84.37890625 C-38.24531611 84.81080741 -50.88331524 81.1574402 -61.1484375 72.10546875 C-71.84712785 61.05835362 -75.43833141 48.26179678 -75.21484375 33.23828125 C-74.75748747 20.34424312 -68.01103534 9.83906902 -59 1 C-42.03652381 -13.32629712 -17.45695572 -12.59552502 0 0 Z " fill="#00BF63" transform="translate(294,399)"/>
<path d="M0 0 C0.66 0.33 1.32 0.66 2 1 C-2.95 5.95 -7.9 10.9 -13 16 C-13.66 15.67 -14.32 15.34 -15 15 C-10.28109462 9.59947495 -5.69641143 4.38185495 0 0 Z " fill="#B4D45B" transform="translate(202,307)"/>
</svg>
